# xmcd
#
# Track frame offsets: 
#        150
#        1084
#        17750
#        38525
#        59026
#        79830
#        96686
#        97009
#        118695
#        139088
#        162603
#        185086
#        206218
#        221252
#        240943
#
# Disc length: 3430 seconds
#
# Revision: 0
# Processed by: cddbd v1.5.2PL0 Copyright (c) Steve Scherf et al.
# Submitted via: ExactAudioCopy v0.99pb5
#
DISCID=d30d640f
DTITLE=Willie Wright - Telling The Truth
DYEAR=1977
DGENRE=Soul
TTITLE0=Hello, Music People Of The World (Intro)
TTITLE1=Nantucket Island
TTITLE2=Lady Of The Year
TTITLE3=I'm So Happy Now
TTITLE4=In The Beauty Of The Night
TTITLE5=Love Is Expensive
TTITLE6=Okay, Once Again (Intro)
TTITLE7=Jackie's Song
TTITLE8=Son, Don't Let Life Pass You By
TTITLE9=Indian Reservation
TTITLE10=Dressing For The Occasion
TTITLE11=It's Only Life, That's All
TTITLE12=Right On For The Darkness
TTITLE13=Africa
TTITLE14=Lack Of Education
EXTD=
EXTT0=
EXTT1=
EXTT2=
EXTT3=
EXTT4=
EXTT5=
EXTT6=
EXTT7=
EXTT8=
EXTT9=
EXTT10=
EXTT11=
EXTT12=
EXTT13=
EXTT14=
PLAYORDER=
